HIERARCHY
ROOT Hips
{
 OFFSET 0.000000 0.000000 0.000000
 CHANNELS 6 Xposition Yposition Zposition Yrotation Xrotation Zrotation
 JOINT Chest
 {
  OFFSET 0.000000 9.585900 0.002600
  CHANNELS 3 Yrotation Xrotation Zrotation
  JOINT Chest2
  {
   OFFSET 0.000000 9.601200 -0.005300
   CHANNELS 3 Yrotation Xrotation Zrotation
   JOINT Chest3
   {
    OFFSET 0.000000 9.561800 0.000000
    CHANNELS 3 Yrotation Xrotation Zrotation
    JOINT Chest4
    {
     OFFSET 0.000000 9.552100 0.000000
     CHANNELS 3 Yrotation Xrotation Zrotation
     JOINT Neck
     {
      OFFSET 0.000000 14.453000 0.000000
      CHANNELS 3 Yrotation Xrotation Zrotation
      JOINT Head
      {
       OFFSET 0.000000 8.936500 -0.011300
       CHANNELS 3 Yrotation Xrotation Zrotation
       End Site
       {
        OFFSET 0.000000 17.073600 -0.006000
       }
      }
     }
     JOINT RightCollar
     {
      OFFSET -2.921100 9.558500 0.000000
      CHANNELS 3 Yrotation Xrotation Zrotation
      JOINT RightShoulder
      {
       OFFSET -13.519700 0.000000 0.000000
       CHANNELS 3 Yrotation Xrotation Zrotation
       JOINT RightElbow
       {
        OFFSET 0.000000 -29.696600 0.000000
        CHANNELS 3 Yrotation Xrotation Zrotation
        JOINT RightWrist
        {
         OFFSET 0.000000 -24.004700 0.000000
         CHANNELS 3 Yrotation Xrotation Zrotation
         End Site
         {
          OFFSET 0.000000 -17.728500 0.000000
         }
        }
       }
      }
     }
     JOINT LeftCollar
     {
      OFFSET 2.921100 9.558500 0.000000
      CHANNELS 3 Yrotation Xrotation Zrotation
      JOINT LeftShoulder
      {
       OFFSET 13.519700 0.000000 0.000000
       CHANNELS 3 Yrotation Xrotation Zrotation
       JOINT LeftElbow
       {
        OFFSET 0.000000 -29.696600 0.000000
        CHANNELS 3 Yrotation Xrotation Zrotation
        JOINT LeftWrist
        {
         OFFSET 0.000000 -24.004700 0.000000
         CHANNELS 3 Yrotation Xrotation Zrotation
         End Site
         {
          OFFSET 0.000000 -17.728500 0.000000
         }
        }
       }
      }
     }
    }
   }
  }
 }
 JOINT RightHip
 {
  OFFSET -7.771700 -0.012900 -0.001300
  CHANNELS 3 Yrotation Xrotation Zrotation
  JOINT RightKnee
  {
   OFFSET 0.000000 -40.869800 0.001200
   CHANNELS 3 Yrotation Xrotation Zrotation
   JOINT RightAnkle
   {
    OFFSET 0.000000 -39.717900 0.002100
    CHANNELS 3 Yrotation Xrotation Zrotation
    JOINT RightToe
    {
     OFFSET 0.000000 -4.965400 11.033500
     CHANNELS 3 Yrotation Xrotation Zrotation
     End Site
     {
      OFFSET 0.000000 -1.423100 5.872300
     }
    }
   }
  }
 }
 JOINT LeftHip
 {
  OFFSET 7.771700 -0.012900 -0.001300
  CHANNELS 3 Yrotation Xrotation Zrotation
  JOINT LeftKnee
  {
   OFFSET 0.000000 -40.869800 0.001200
   CHANNELS 3 Yrotation Xrotation Zrotation
   JOINT LeftAnkle
   {
    OFFSET 0.000000 -39.717900 0.002100
    CHANNELS 3 Yrotation Xrotation Zrotation
    JOINT LeftToe
    {
     OFFSET 0.000000 -4.965400 11.033500
     CHANNELS 3 Yrotation Xrotation Zrotation
     End Site
     {
      OFFSET 0.000000 -1.423100 5.872300
     }
    }
   }
  }
 }
}
MOTION
Frames: 16
Frame Time: 0.008333
-104.261635 57.123552 97.857716 173.510267 -55.134039 -0.550107 4.639427 23.737910 4.076488 0.572586 3.627559 0.505277 0.938520 5.831403 0.826802 3.649379 19.733564 3.327076 -0.198150 19.208370 -1.263646 0.054682 -0.110055 -2.214105 -0.549422 2.762725 -0.649606 -16.169398 -20.042645 -4.993229 121.653365 -27.224235 -145.048315 20.552592 -11.757358 -53.668628 -6.496454 0.598829 -1.685710 36.307263 -19.297241 -3.552462 -148.220439 -42.087661 162.259838 -4.883769 -18.488253 33.979936 13.609295 -21.396960 -3.370918 -8.382479 63.873788 -3.680767 9.085407 31.507990 6.735553 -0.596453 -19.673094 3.481928 -7.648046 -17.613598 1.969019 24.551947 61.542231 18.609129 -12.612209 7.813725 -7.334283 -0.036529 0.163144 0.011382
-104.252620 57.126481 97.856551 173.517196 -55.131067 -0.561595 4.641947 23.740052 4.080615 0.572217 3.632012 0.501182 0.937112 5.822721 0.833099 3.647169 19.740466 3.318602 -0.204686 19.196033 -1.268514 0.054900 -0.130899 -2.223998 -0.546971 2.764264 -0.663024 -16.174285 -20.066288 -5.008399 121.665181 -27.224460 -145.030645 20.530692 -11.721324 -53.675244 -6.493535 0.599720 -1.681388 36.301075 -19.296538 -3.553581 -148.195613 -42.085709 162.247985 -4.893173 -18.484823 34.007022 13.598406 -21.398469 -3.354572 -8.327066 63.874762 -3.627657 9.061363 31.500687 6.696442 -0.602166 -19.669203 3.510427 -7.601803 -17.609813 1.991689 24.468465 61.548403 18.553655 -12.634814 7.810287 -7.341638 -0.024548 0.162919 0.020162
-104.242881 57.130360 97.855704 173.533269 -55.129750 -0.577749 4.639070 23.750519 4.075540 0.568976 3.623688 0.507855 0.935061 5.828176 0.828235 3.640416 19.743569 3.312307 -0.195485 19.181258 -1.264887 0.048887 -0.159294 -2.237264 -0.534920 2.758945 -0.670576 -16.178464 -20.075645 -5.002539 121.669643 -27.219787 -145.024082 20.510031 -11.744910 -53.691841 -6.483532 0.603255 -1.678912 36.306735 -19.295752 -3.560364 -148.183037 -42.088197 162.244838 -4.894557 -18.462344 34.043886 13.564074 -21.395978 -3.334345 -8.132739 63.876880 -3.459005 9.000792 31.486659 6.597277 -0.639887 -19.660317 3.603130 -7.581252 -17.606754 2.004735 24.427860 61.551303 18.525632 -12.625173 7.813520 -7.352754 -0.030649 0.160440 0.034672
-104.233966 57.135565 97.854907 173.552912 -55.133500 -0.587220 4.626261 23.756582 4.067688 0.570873 3.629659 0.503170 0.934189 5.829449 0.827478 3.634273 19.757799 3.305589 -0.188426 19.154726 -1.259629 0.041458 -0.196629 -2.249361 -0.523757 2.748400 -0.673676 -16.170315 -20.123925 -5.043472 121.685956 -27.224328 -145.005656 20.479997 -11.733399 -53.704751 -6.479300 0.600122 -1.676798 36.309735 -19.269223 -3.558170 -148.204435 -42.070068 162.277388 -4.892445 -18.454960 34.055602 13.497603 -21.389357 -3.285897 -8.039300 63.872848 -3.445083 8.971968 31.480617 6.554386 -0.644602 -19.660017 3.655916 -7.554257 -17.597555 2.011288 24.408091 61.552540 18.495098 -12.612428 7.814870 -7.316988 -0.068676 0.163936 0.026588
-104.223181 57.140668 97.855541 173.556504 -55.133701 -0.594499 4.626884 23.760221 4.070056 0.570863 3.631258 0.503227 0.934151 5.832053 0.827493 3.630109 19.761090 3.301480 -0.202869 19.120938 -1.271800 0.042928 -0.222579 -2.252240 -0.511225 2.753048 -0.685728 -16.163110 -20.180046 -5.088126 121.714846 -27.229035 -144.991028 20.459474 -11.706057 -53.712066 -6.477288 0.603646 -1.680277 36.310580 -19.258751 -3.560165 -148.215219 -42.072327 162.294860 -4.896408 -18.456714 34.059265 13.464899 -21.387735 -3.248992 -8.027303 63.864080 -3.463613 8.983492 31.484776 6.505107 -0.656898 -19.664717 3.707951 -7.518373 -17.590187 2.024616 24.339674 61.553379 18.451110 -12.607712 7.817616 -7.323774 -0.055550 0.161966 0.031067
-104.214955 57.146034 97.856778 173.571728 -55.134771 -0.599491 4.617569 23.764407 4.058977 0.570339 3.632880 0.503177 0.933283 5.834431 0.827315 3.623387 19.766493 3.296681 -0.201443 19.098471 -1.272644 0.018830 -0.332097 -2.269210 -0.498936 2.756302 -0.696687 -16.141237 -20.248731 -5.143428 121.720284 -27.273110 -144.972307 20.458491 -11.663687 -53.710975 -6.472990 0.606994 -1.682274 36.314281 -19.261531 -3.562212 -148.206223 -42.082592 162.275820 -4.897772 -18.472406 34.080010 13.444156 -21.380813 -3.247350 -7.923121 63.859384 -3.364491 8.955290 31.495369 6.438942 -0.629271 -19.676409 3.746091 -7.484943 -17.583623 2.030042 24.290000 61.551224 18.403761 -12.601018 7.827085 -7.304534 -0.065500 0.160374 0.022757
-104.209043 57.151898 97.858415 173.597630 -55.139870 -0.606532 4.598069 23.776882 4.033705 0.569725 3.630437 0.508157 0.932603 5.837299 0.826491 3.616584 19.774513 3.293279 -0.191382 19.080293 -1.268907 0.004323 -0.394379 -2.276183 -0.487952 2.757683 -0.707853 -16.065348 -20.386162 -5.297970 121.701034 -27.401461 -144.938751 20.428882 -11.729667 -53.740803 -6.465461 0.608642 -1.684509 36.319234 -19.264651 -3.564294 -148.173734 -42.086264 162.246592 -4.890978 -18.458346 34.090531 13.419351 -21.366184 -3.254478 -7.802924 63.853791 -3.250494 8.909111 31.504560 6.395780 -0.620435 -19.683908 3.766719 -7.456729 -17.574450 2.031151 24.281988 61.543658 18.379078 -12.610584 7.840545 -7.262698 -0.086817 0.157879 0.014497
-104.202335 57.156866 97.861638 173.601738 -55.140713 -0.611207 4.595467 23.782779 4.027988 0.571094 3.631514 0.509523 0.930929 5.840257 0.825837 3.611954 19.778113 3.291373 -0.196710 19.053976 -1.272810 0.001232 -0.450864 -2.280358 -0.476917 2.758697 -0.720342 -16.001660 -20.498986 -5.418273 121.711526 -27.465276 -144.911394 20.415276 -11.733505 -53.753587 -6.458372 0.609070 -1.686242 36.313425 -19.243995 -3.555539 -148.140495 -42.078334 162.216726 -4.912859 -18.397105 34.105168 13.384899 -21.362034 -3.246278 -7.655436 63.841768 -3.115466 8.869657 31.534318 6.316308 -0.637433 -19.702575 3.825614 -7.431441 -17.569882 2.044949 24.273908 61.542846 18.363557 -12.615441 7.845259 -7.238526 -0.083146 0.156146 -0.005194
-104.199914 57.161599 97.865121 173.610000 -55.143623 -0.605522 4.583736 23.793666 4.006208 0.570989 3.631772 0.509869 0.929799 5.844483 0.825300 3.615864 19.770928 3.295667 -0.209767 19.036530 -1.279880 -0.001244 -0.511205 -2.283908 -0.475509 2.770175 -0.732542 -15.938972 -20.603746 -5.523929 121.712375 -27.516266 -144.884828 20.409199 -11.677851 -53.749822 -6.455961 0.609185 -1.686707 36.303467 -19.216402 -3.545624 -148.040986 -42.091539 162.097705 -4.887494 -18.413894 34.182227 13.357298 -21.354057 -3.248710 -7.617184 63.830836 -3.090448 8.880280 31.558603 6.259097 -0.654144 -19.720134 3.877443 -7.422733 -17.566131 2.039914 24.315696 61.537107 18.377080 -12.603933 7.850404 -7.224667 -0.121738 0.158516 0.009737
-104.196737 57.165418 97.869700 173.610770 -55.144817 -0.610956 4.584282 23.801545 4.002649 0.569412 3.634537 0.510000 0.929314 5.847897 0.824632 3.612779 19.776416 3.292139 -0.212200 19.004210 -1.281734 -0.004115 -0.571877 -2.285355 -0.463806 2.772632 -0.735080 -15.871348 -20.719009 -5.638524 121.709748 -27.564924 -144.858312 20.400538 -11.615172 -53.741760 -6.457684 0.613031 -1.681520 36.282645 -19.167710 -3.517587 -148.029011 -42.068271 162.110362 -4.889160 -18.421079 34.225830 13.336019 -21.348698 -3.242049 -7.561366 63.814500 -3.035963 8.871297 31.581170 6.227244 -0.650619 -19.730584 3.892198 -7.393409 -17.558266 2.060823 24.288276 61.532719 18.343344 -12.619566 7.853236 -7.211442 -0.128695 0.160925 0.007278
-104.193041 57.168066 97.875256 173.624852 -55.143048 -0.642524 4.584508 23.801512 4.019734 0.568516 3.642011 0.506001 0.928260 5.852179 0.824105 3.593179 19.805595 3.279714 -0.197218 18.949160 -1.278758 -0.008997 -0.635467 -2.286380 -0.442118 2.749512 -0.737851 -15.794751 -20.835770 -5.753629 121.705453 -27.612385 -144.834586 20.386959 -11.681104 -53.758617 -6.444672 0.591566 -1.672025 36.273530 -19.153381 -3.501637 -148.019700 -42.074282 162.099142 -4.900297 -18.428899 34.264787 13.307872 -21.347692 -3.218374 -7.552655 63.791793 -3.024624 8.880982 31.606037 6.203765 -0.652622 -19.740579 3.906587 -7.357753 -17.556200 2.113165 24.211471 61.539908 18.268611 -12.660859 7.862310 -7.199433 -0.088577 0.153457 -0.006084
-104.192941 57.171995 97.879251 173.653883 -55.157172 -0.674149 4.571343 23.817712 4.024485 0.562260 3.655669 0.494422 0.931550 5.849289 0.830751 3.594773 19.802892 3.283483 -0.223547 18.916530 -1.288245 -0.000212 -0.690867 -2.289555 -0.421898 2.767108 -0.760256 -15.740476 -20.961399 -5.854712 121.704213 -27.658742 -144.810975 20.367747 -11.693599 -53.759028 -6.445690 0.604344 -1.679101 36.255401 -19.144684 -3.485763 -148.023048 -42.082830 162.097565 -4.908191 -18.396481 34.265183 13.283209 -21.328723 -3.205155 -7.555054 63.773285 -3.022248 8.899063 31.635451 6.169095 -0.674641 -19.758929 3.945242 -7.355646 -17.539337 2.135430 24.206081 61.538159 18.246314 -12.672702 7.867654 -7.188471 -0.093365 0.154143 0.001808
-104.194689 57.174116 97.883822 173.662393 -55.165008 -0.686822 4.566630 23.828685 4.023141 0.561632 3.661581 0.495299 0.930636 5.853241 0.829949 3.596063 19.800654 3.285359 -0.242768 18.890424 -1.293363 -0.002080 -0.754714 -2.292181 -0.407969 2.770017 -0.767208 -15.671281 -21.080744 -5.976105 121.713387 -27.707283 -144.788023 20.351483 -11.679636 -53.753792 -6.452421 0.619192 -1.686763 36.240342 -19.138287 -3.474162 -148.025146 -42.073799 162.114899 -4.918772 -18.400082 34.280241 13.274052 -21.320291 -3.193730 -7.592029 63.756259 -3.056994 8.925432 31.671608 6.149390 -0.681361 -19.782562 3.970786 -7.344488 -17.527718 2.153631 24.201214 61.536828 18.222416 -12.666176 7.866105 -7.183601 -0.109499 0.161620 0.018791
-104.198241 57.175346 97.888137 173.673553 -55.172830 -0.697438 4.558757 23.849631 4.013429 0.563710 3.656594 0.502153 0.925073 5.860476 0.826921 3.587222 19.810641 3.280626 -0.233484 18.859969 -1.291602 -0.018847 -0.830401 -2.291616 -0.386140 2.750470 -0.765868 -15.589997 -21.196029 -6.110935 121.734922 -27.763159 -144.771199 20.337949 -11.668022 -53.748645 -6.447798 0.620111 -1.691495 36.234065 -19.139458 -3.469603 -148.048057 -42.100753 162.102280 -4.932698 -18.402828 34.295628 13.270101 -21.313174 -3.186843 -7.619131 63.743118 -3.084336 8.942298 31.709198 6.140347 -0.684882 -19.808997 3.989448 -7.339428 -17.517816 2.163589 24.200431 61.536128 18.202114 -12.657988 7.864432 -7.176874 -0.112902 0.166461 0.023574
-104.203371 57.175754 97.892053 173.683650 -55.180524 -0.702410 4.552245 23.863182 4.007151 0.563740 3.653917 0.504402 0.921770 5.874388 0.823370 3.578112 19.819454 3.277637 -0.228381 18.828884 -1.291384 -0.034502 -0.909635 -2.290737 -0.360561 2.750888 -0.777406 -15.520369 -21.331841 -6.231655 121.766258 -27.825613 -144.762500 20.323867 -11.661949 -53.745230 -6.441312 0.618161 -1.704078 36.211402 -19.138944 -3.463815 -148.066273 -42.128148 162.091653 -4.900030 -18.382332 34.260572 13.273851 -21.306187 -3.188169 -7.627545 63.734217 -3.089961 8.942778 31.743042 6.128616 -0.688691 -19.832816 4.008805 -7.340289 -17.510178 2.163615 24.215115 61.534238 18.195155 -12.648808 7.865068 -7.168529 -0.116004 0.166899 0.011720
-104.207748 57.175140 97.895962 173.683595 -55.185542 -0.706647 4.554427 23.869609 4.011137 0.562005 3.663811 0.500991 0.919611 5.881648 0.823474 3.560008 19.853009 3.268922 -0.238183 18.753512 -1.293741 -0.023408 -0.975458 -2.294319 -0.320323 2.725000 -0.790110 -15.455473 -21.469249 -6.348534 121.807160 -27.889611 -144.760544 20.308072 -11.660424 -53.746159 -6.429326 0.593006 -1.712501 36.185074 -19.138914 -3.462535 -148.054638 -42.118087 162.094798 -4.902979 -18.382422 34.260972 13.287984 -21.303567 -3.184963 -7.623952 63.726152 -3.078443 8.936160 31.769695 6.118136 -0.691863 -19.849748 4.026368 -7.327824 -17.504341 2.180833 24.196402 61.539331 18.158789 -12.653794 7.865269 -7.158306 -0.119144 0.169420 0.021757
